<svg id="bold" enable-background="new 0 0 32 32" height="512" viewBox="0 0 32 32" width="512" xmlns="http://www.w3.org/2000/svg"><path d="m26 32h-20c-3.314 0-6-2.686-6-6v-20c0-3.314 2.686-6 6-6h20c3.314 0 6 2.686 6 6v20c0 3.314-2.686 6-6 6z" fill="#e3f8fa"/><g fill="#8ce1eb"><path d="m17 16c-.276 0-.5-.224-.5-.5v-2.167c0-.184-.149-.333-.333-.333s-.333.149-.333.333v2.167c0 .276-.224.5-.5.5s-.5-.224-.5-.5v-2.167c0-.735.598-1.333 1.333-1.333s1.333.598 1.333 1.333v2.167c0 .276-.224.5-.5.5z"/><path d="m17 15h-1.667c-.276 0-.5-.224-.5-.5s.224-.5.5-.5h1.667c.276 0 .5.224.5.5s-.224.5-.5.5z"/><path d="m19.333 16c-.276 0-.5-.224-.5-.5v-3c0-.276.224-.5.5-.5s.5.224.5.5v3c0 .276-.224.5-.5.5z"/></g><path d="m20.933 24h-5.7c-.368 0-.667-.299-.667-.667v-1.65l-1.077.329c-.124.046-.294.074-.474.074-.891 0-1.617-.728-1.617-1.623v-1.565h-.917c-.542 0-.983-.442-.983-.985 0-.184.052-.366.152-.525l1.479-2.365c.176-.281.269-.604.269-.934.002-3.359 2.716-6.089 6.052-6.089s6.05 2.73 6.05 6.087c0 1.257-.38 2.465-1.099 3.495-.524.752-.801 1.632-.801 2.547v3.205c0 .368-.299.666-.667.666zm-5.033-1.333h4.367v-2.538c0-1.189.36-2.333 1.041-3.31.562-.805.859-1.75.859-2.732 0-2.621-2.116-4.754-4.717-4.754s-4.716 2.132-4.716 4.754c0 .583-.163 1.151-.472 1.644l-1.148 1.835h.953c.368 0 .667.299.667.667v2.232c0 .162.124.29.283.29.01-.004.073-.012.084-.015l1.938-.593c.201-.061.422-.024.591.102.17.126.27.325.27.536z" fill="#26c6da"/></svg>