<svg enable-background="new 0 0 32 32" height="512" viewBox="0 0 32 32" width="512" xmlns="http://www.w3.org/2000/svg"><g id="Layer_2"><path d="m26 32h-20c-3.314 0-6-2.686-6-6v-20c0-3.314 2.686-6 6-6h20c3.314 0 6 2.686 6 6v20c0 3.314-2.686 6-6 6z" fill="#f5e6fe"/></g><g id="bold_1_"><g><path d="m8.5 12.667c-.128 0-.256-.049-.354-.146-.195-.195-.195-.512 0-.707l1.667-1.667c.16-.16.406-.193.602-.081l.849.485 1.536-1.419c.203-.187.519-.174.707.028.187.203.174.519-.028.707l-1.806 1.667c-.16.148-.397.175-.587.067l-.835-.477-1.398 1.396c-.097.098-.225.147-.353.147z" fill="#d9a4fc"/><path d="m13.5 11.333c-.13 0-.258-.051-.354-.146l-1.666-1.667c-.143-.143-.186-.358-.108-.545s.26-.309.462-.309h1.666c.276 0 .5.224.5.5v1.667c0 .202-.122.384-.309.462-.061.026-.127.038-.191.038z" fill="#d9a4fc"/><g fill="#be63f9"><ellipse cx="19.333" cy="9.333" rx="4.667" ry="1.333"/><path d="m19.333 13.667c-2.577 0-4.667-.597-4.667-1.333v-1.512c1.469.788 3.997.845 4.667.845.669 0 3.198-.057 4.667-.845v1.512c0 .736-2.089 1.333-4.667 1.333z"/><path d="m17.667 20.58v1.993c.513.06 1.08.093 1.667.093 2.58 0 4.667-.6 4.667-1.333v-1.513c-1.467.787-4 .847-4.667.847-.287 0-.921-.014-1.667-.087z"/><path d="m17.593 17.573c.02.06.033.133.047.2l.027-.02v1.82c.513.06 1.08.093 1.667.093 2.58 0 4.667-.6 4.667-1.333v-1.513c-1.467.787-4 .847-4.667.847-.294 0-.961-.014-1.741-.094z"/><path d="m19.333 14.667c.669 0 3.198-.057 4.667-.845v1.512c0 .736-2.089 1.333-4.667 1.333s-4.667-.597-4.667-1.333v-1.512c1.47.787 3.998.845 4.667.845z"/><ellipse cx="12.333" cy="18" rx="4.333" ry="1.333"/><path d="m12.333 21.667c-2.393 0-4.333-.597-4.333-1.334v-.845c1.364.788 3.712.845 4.333.845s2.969-.057 4.333-.845v.845c.001.737-1.939 1.334-4.333 1.334z"/><path d="m12.333 22.667c.621 0 2.969-.057 4.333-.845v.845c0 .736-1.94 1.333-4.333 1.333s-4.333-.597-4.333-1.333v-.845c1.364.787 3.712.845 4.333.845z"/></g></g></g></svg>