<svg id="bold" height="512" viewBox="0 0 32 32" width="512" xmlns="http://www.w3.org/2000/svg"><path d="m26 32h-20c-3.314 0-6-2.686-6-6v-20c0-3.314 2.686-6 6-6h20c3.314 0 6 2.686 6 6v20c0 3.314-2.686 6-6 6z" fill="#f5e6fe"/><path d="m17.667 16.833c-.276 0-.5-.224-.5-.5v-1.167c0-.091-.075-.166-.167-.166h-2c-.092 0-.167.075-.167.167v1.167c0 .276-.224.5-.5.5s-.5-.224-.5-.5v-1.167c0-.644.524-1.167 1.167-1.167h2c.643 0 1.167.523 1.167 1.167v1.167c0 .275-.224.499-.5.499z" fill="#d9a4fc"/><path d="m16 15c-.276 0-.5-.224-.5-.5v-3.833c0-1.471 1.196-2.667 2.667-2.667s2.667 1.196 2.667 2.667c0 .735.598 1.333 1.333 1.333h1.333c.276 0 .5.224.5.5s-.224.5-.5.5h-1.333c-1.286 0-2.333-1.047-2.333-2.333-.001-.919-.748-1.667-1.667-1.667s-1.667.748-1.667 1.667v3.833c0 .276-.224.5-.5.5z" fill="#d9a4fc"/><path d="m20.239 16h-8.476c-2.075 0-3.763 1.653-3.763 3.684v.743c0 .942.372 1.832 1.046 2.504.692.69 1.616 1.069 2.603 1.069h.014c1.249-.005 2.424-.545 3.225-1.483.231-.271.572-.426.936-.426h.353c.363 0 .703.155.956.453.789.925 1.946 1.456 3.22 1.456 2.011 0 3.647-1.602 3.647-3.571v-.747c0-2.03-1.687-3.682-3.761-3.682zm-8.072 4.5h-.667v.667c0 .276-.224.5-.5.5s-.5-.224-.5-.5v-.667h-.667c-.276 0-.5-.224-.5-.5s.224-.5.5-.5h.667v-.667c0-.276.224-.5.5-.5s.5.224.5.5v.667h.667c.276 0 .5.224.5.5s-.224.5-.5.5zm4-.5h-.333c-.276 0-.5-.224-.5-.5s.224-.5.5-.5h.333c.276 0 .5.224.5.5s-.224.5-.5.5zm3.333.5c-.276 0-.5-.224-.5-.5s.224-.5.5-.5.5.224.5.5-.224.5-.5.5zm1.167 1.167c-.276 0-.5-.224-.5-.5s.224-.5.5-.5.5.224.5.5-.224.5-.5.5zm0-2.334c-.276 0-.5-.224-.5-.5s.224-.5.5-.5.5.224.5.5-.224.5-.5.5zm1.166 1.167c-.276 0-.5-.224-.5-.5s.224-.5.5-.5.5.224.5.5-.224.5-.5.5z" fill="#be63f9"/></svg>