<svg enable-background="new 0 0 32 32" height="512" viewBox="0 0 32 32" width="512" xmlns="http://www.w3.org/2000/svg"><path d="m26 32h-20c-3.314 0-6-2.686-6-6v-20c0-3.314 2.686-6 6-6h20c3.314 0 6 2.686 6 6v20c0 3.314-2.686 6-6 6z" fill="#e3f8fa"/><path d="m19.333 13.833c0-.643-.523-1.167-1.167-1.167h-9c-.643.001-1.166.524-1.166 1.167v9c0 .644.523 1.167 1.167 1.167h9c.643 0 1.167-.523 1.167-1.167v-9z" fill="#26c6da"/><g fill="#8ce1eb"><path d="m23.334 11.333c-.368 0-.667-.299-.667-.667v-.666c0-.368-.299-.667-.667-.667h-.667c-.368 0-.667-.299-.667-.667s.299-.666.668-.666h.666c1.103 0 2 .897 2 2v.667c0 .368-.298.666-.666.666z"/><path d="m11.334 11.333c-.368 0-.667-.299-.667-.667v-.666c0-1.103.897-2 2-2h.667c.368 0 .666.298.666.667s-.298.667-.667.667h-.667c-.367-.001-.666.298-.666.666v.667c0 .368-.298.666-.666.666z"/><path d="m18.667 9.333h-2.667c-.368 0-.667-.299-.667-.667s.299-.666.667-.666h2.667c.368 0 .667.299.667.667s-.299.666-.667.666z"/><path d="m22 21.333h-.667c-.368 0-.667-.299-.667-.667s.299-.666.668-.666h.666c.368 0 .667-.299.667-.667v-.667c0-.368.298-.667.667-.667s.666.3.666.668v.667c0 1.102-.897 1.999-2 1.999z"/><path d="m23.334 16.667c-.368 0-.667-.299-.667-.667v-2.667c0-.368.298-.667.667-.667s.666.299.666.667v2.667c0 .368-.298.667-.666.667z"/></g></svg>